HIERARCHY
ROOT hip
{
  OFFSET 0 0 0
  CHANNELS 6 Xposition Yposition Zposition Zrotation Yrotation Xrotation
  JOINT abdomen
  {
    OFFSET 0 20.6881 -0.73152
    CHANNELS 3 Zrotation Xrotation Yrotation
    JOINT chest
    {
      OFFSET 0 11.7043 -0.48768
      CHANNELS 3 Zrotation Xrotation Yrotation
      JOINT neck
      {
        OFFSET 0 22.1894 -2.19456
        CHANNELS 3 Zrotation Xrotation Yrotation
        JOINT head
        {
          OFFSET -0.24384 7.07133 1.2192
          CHANNELS 3 Zrotation Xrotation Yrotation
          JOINT leftEye
          {
            OFFSET 4.14528 8.04674 8.04672
            CHANNELS 3 Zrotation Xrotation Yrotation
            End Site
            {
              OFFSET 1 0 0
            }
          }
          JOINT rightEye
          {
            OFFSET -3.6576 8.04674 8.04672
            CHANNELS 3 Zrotation Xrotation Yrotation
            End Site
            {
              OFFSET 1 0 0
            }
          }
        }
      }
      JOINT rCollar
      {
        OFFSET -2.68224 19.2634 -4.8768
        CHANNELS 3 Zrotation Xrotation Yrotation
        JOINT rShldr
        {
          OFFSET -8.77824 -1.95073 1.46304
          CHANNELS 3 Zrotation Xrotation Yrotation
          JOINT rForeArm
          {
            OFFSET -28.1742 -1.7115 0.48768
            CHANNELS 3 Zrotation Xrotation Yrotation
            JOINT rHand
            {
              OFFSET -22.5879 0.773209 7.07136
              CHANNELS 3 Zrotation Xrotation Yrotation
              JOINT rThumb1
              {
                OFFSET -1.2192 -0.487915 3.41376
                CHANNELS 3 Zrotation Xrotation Yrotation
                JOINT rThumb2
                {
                  OFFSET -3.37035 -0.52449 3.41376
                  CHANNELS 3 Zrotation Xrotation Yrotation
                  End Site
                  {
                    OFFSET -1.78271 -1.18214 1.43049
                  }
                }
              }
              JOINT rIndex1
              {
                OFFSET -7.75947 0.938293 5.60832
                CHANNELS 3 Zrotation Xrotation Yrotation
                JOINT rIndex2
                {
                  OFFSET -2.54057 -0.884171 1.56538
                  CHANNELS 3 Zrotation Xrotation Yrotation
                  End Site
                  {
                    OFFSET -1.62519 -0.234802 1.16502
                  }
                }
              }
              JOINT rMid1
              {
                OFFSET -8.24714 1.18213 3.41376
                CHANNELS 3 Zrotation Xrotation Yrotation
                JOINT rMid2
                {
                  OFFSET -3.10165 -0.590103 1.0647
                  CHANNELS 3 Zrotation Xrotation Yrotation
                  End Site
                  {
                    OFFSET -2.48547 -0.328903 0.83742
                  }
                }
              }
              JOINT rRing1
              {
                OFFSET -8.82822 0.546677 1.51678
                CHANNELS 3 Zrotation Xrotation Yrotation
                JOINT rRing2
                {
                  OFFSET -2.60934 -0.819778 -0.0198488
                  CHANNELS 3 Zrotation Xrotation Yrotation
                  End Site
                  {
                    OFFSET -2.33842 -0.294052 0.168128
                  }
                }
              }
              JOINT rPinky1
              {
                OFFSET -8.27202 -0.0477905 -0.4584
                CHANNELS 3 Zrotation Xrotation Yrotation
                JOINT rPinky2
                {
                  OFFSET -1.82734 -0.647385 -0.700984
                  CHANNELS 3 Zrotation Xrotation Yrotation
                  End Site
                  {
                    OFFSET -1.69225 -0.51767 -0.607171
                  }
                }
              }
            }
          }
        }
      }
      JOINT lCollar
      {
        OFFSET 2.68224 19.2634 -4.8768
        CHANNELS 3 Zrotation Xrotation Yrotation
        JOINT lShldr
        {
          OFFSET 8.77824 -1.95073 1.46304
          CHANNELS 3 Zrotation Xrotation Yrotation
          JOINT lForeArm
          {
            OFFSET 28.1742 -1.7115 0.48768
            CHANNELS 3 Zrotation Xrotation Yrotation
            JOINT lHand
            {
              OFFSET 22.5879 0.773209 7.07136
              CHANNELS 3 Zrotation Xrotation Yrotation
              JOINT lThumb1
              {
                OFFSET 1.2192 -0.487915 3.41376
                CHANNELS 3 Zrotation Xrotation Yrotation
                JOINT lThumb2
                {
                  OFFSET 3.37035 -0.52449 3.41376
                  CHANNELS 3 Zrotation Xrotation Yrotation
                  End Site
                  {
                    OFFSET 1.78271 -1.18214 1.43049
                  }
                }
              }
              JOINT lIndex1
              {
                OFFSET 7.75947 0.938293 5.60832
                CHANNELS 3 Zrotation Xrotation Yrotation
                JOINT lIndex2
                {
                  OFFSET 2.54057 -0.884171 1.56538
                  CHANNELS 3 Zrotation Xrotation Yrotation
                  End Site
                  {
                    OFFSET 1.62519 -0.234802 1.16502
                  }
                }
              }
              JOINT lMid1
              {
                OFFSET 8.24714 1.18213 3.41376
                CHANNELS 3 Zrotation Xrotation Yrotation
                JOINT lMid2
                {
                  OFFSET 3.10165 -0.590103 1.0647
                  CHANNELS 3 Zrotation Xrotation Yrotation
                  End Site
                  {
                    OFFSET 2.48547 -0.328903 0.83742
                  }
                }
              }
              JOINT lRing1
              {
                OFFSET 8.82822 0.546677 1.51678
                CHANNELS 3 Zrotation Xrotation Yrotation
                JOINT lRing2
                {
                  OFFSET 2.60934 -0.819778 -0.0198488
                  CHANNELS 3 Zrotation Xrotation Yrotation
                  End Site
                  {
                    OFFSET 2.33842 -0.294052 0.168128
                  }
                }
              }
              JOINT lPinky1
              {
                OFFSET 8.27202 -0.0477905 -0.4584
                CHANNELS 3 Zrotation Xrotation Yrotation
                JOINT lPinky2
                {
                  OFFSET 1.82734 -0.647385 -0.700984
                  CHANNELS 3 Zrotation Xrotation Yrotation
                  End Site
                  {
                    OFFSET 1.69225 -0.51767 -0.607171
                  }
                }
              }
            }
          }
        }
      }
    }
  }
  JOINT rButtock
  {
    OFFSET -8.77824 4.35084 1.2192
    CHANNELS 3 Zrotation Xrotation Yrotation
    JOINT rThigh
    {
      OFFSET 0 -1.70687 -2.19456
      CHANNELS 3 Zrotation Xrotation Yrotation
      JOINT rShin
      {
        OFFSET 0 -36.8199 0.73152
        CHANNELS 3 Zrotation Xrotation Yrotation
        JOINT rFoot
        {
          OFFSET 0.73152 -45.1104 -5.12064
          CHANNELS 3 Zrotation Xrotation Yrotation
          End Site
          {
            OFFSET -1.1221 -3.69964 12.103
          }
        }
      }
    }
  }
  JOINT lButtock
  {
    OFFSET 8.77824 4.35084 1.2192
    CHANNELS 3 Zrotation Xrotation Yrotation
    JOINT lThigh
    {
      OFFSET 0 -1.70687 -2.19456
      CHANNELS 3 Zrotation Xrotation Yrotation
      JOINT lShin
      {
        OFFSET 0 -36.8199 0.73152
        CHANNELS 3 Zrotation Xrotation Yrotation
        JOINT lFoot
        {
          OFFSET -0.73152 -45.1104 -5.12064
          CHANNELS 3 Zrotation Xrotation Yrotation
          End Site
          {
            OFFSET 1.1221 -3.69964 12.103
          }
        }
      }
    }
  }
}
MOTION
Frames:	4
Frame Time:	0.03333
0.019642464816570282 5.55187463760376 -0.0007542893290519714 -1.5347807854413986 -5.955881327390671 -6.03303037583828 8.404478654265404 11.803746074438095 8.321396559476852 6.947999596595764 -4.842408522963524 -1.1986193619668484 -6.939889267086983 6.2820956110954285 1.638246327638626 5.077034421265125 -9.593844562768936 -9.84960861504078 -8.249558955430984 -6.4855921268463135 2.455407790839672 6.955993250012398 -8.546847626566887 -3.4216926991939545 -2.6523741334676743 2.7721552178263664 -4.002418778836727 9.879900813102722 14.24310252070427 -1.362783294171095 -10.142584294080734 -14.897796213626862 15.391416549682617 -10.913142710924149 -1.2583878636360168 3.120076283812523 -2.183443196117878 -0.714406706392765 3.0139828473329544 -9.535844475030899 6.826034188270569 -4.003228805959225 4.561039432883263 -2.1938530169427395 0.31997328624129295 7.6891375333070755 5.93476764857769 1.4371587708592415 0.0033624842762947083 -0.14738906174898148 4.4554586336016655 -1.474597379565239 -0.7624635100364685 4.088455326855183 -4.907955676317215 0.8295053243637085 3.4940607100725174 3.020683340728283 0.33562079071998596 1.4602026343345642 -8.630360215902328 3.8111038506031036 2.084253765642643 1.1003682017326355 -4.601694345474243 -0.12720376253128052 2.827853634953499 10.617226660251617 -2.864825204014778 -24.49379324913025 9.769564121961594 -12.652548551559448 15.27822732925415 -8.984419852495193 -25.98342776298523 -7.145898342132568 -0.9530378133058548 -3.3621449768543243 -1.7028171569108963 -1.7181627452373505 0.99809305742383 4.526316896080971 -6.785451024770737 2.2373351454734802 -1.9727536663413048 0.21937787532806396 0.7292111590504646 4.7807130217552185 2.219207100570202 1.7594580352306366 -6.681294143199921 -3.628467209637165 -2.473876476287842 -8.251825422048569 3.945988453924656 0.6837477162480354 1.2359018996357918 -2.0161963999271393 -0.45770958065986633 -3.8890528678894043 -2.569441571831703 6.399333626031876 -6.017558723688126 6.5055035054683685 -3.388724662363529 0.06351102143526077 1.8464957177639008 -4.5022789388895035 0.13685686513781548 -6.070618852972984 0.21713823080062866 -9.661726579070091 -11.952706575393677 -19.843764156103134 4.874674156308174 30.12048304080963 5.889221057295799 -4.337585940957069 -8.16038154065609 7.738559246063232 1.9307710602879524 -2.529100477695465 2.654615119099617 13.892842233181 -14.310456812381744 3.924390971660614 12.803020477294922 20.19221395254135 -14.73442554473877 1.7966894432902336 -10.479452311992645 4.049108996987343
0.0320993522182107 47.478641510009766 0.19281772524118423 -34.543129205703735 -12.1063032746315 21.29401445388794 -5.4136305302381516 10.814367681741714 1.1317379772663116 -1.7561951279640198 -7.93358601629734 4.004644341766834 -3.6185145378112793 25.985546708106995 -3.0228857696056366 12.103513777256012 -32.68572896718979 -4.2772456258535385 3.6961638182401657 2.9245395585894585 -0.5876421555876732 2.909614071249962 3.273274339735508 0.6923210620880127 -1.0867995768785477 -2.1054666861891747 0.060084499418735504 55.05380988121033 37.50278323888779 13.885243535041809 -27.565147876739502 -22.337486296892166 79.14768040180206 -2.455861419439316 -26.4834263920784 6.869960054755211 -0.5535827949643135 -0.08916232734918594 0.9013409167528152 1.7999597266316414 -2.8920798003673553 -4.1921984776854515 -0.018658116459846497 0.8367441035807133 -0.892693642526865 7.1424999833106995 1.5131507813930511 2.159471958875656 -1.4681322500109673 -0.5165143311023712 -3.8955632597208023 4.011327065527439 2.513456493616104 -3.754659779369831 1.7939245887100697 -0.5597267299890518 0.21057620644569397 15.656071454286575 0.5609960854053497 -0.5409197509288788 3.69463462382555 -4.144018292427063 -4.856608137488365 0.7395661622285843 1.031104177236557 -4.155773743987083 0.2725849812850356 2.935801148414612 2.9026859253644943 -73.79060626029968 42.87802129983902 -21.6737562417984 25.7723405957222 -28.658459186553955 -64.76527869701385 5.813264921307564 -17.71659940481186 -2.189127802848816 -2.135264351963997 2.342911586165428 -0.3505977429449558 -1.6505033522844315 5.182279273867607 -3.1965256109833717 3.223613239824772 2.2077544033527374 1.1458034813404083 -13.78542646765709 6.625573933124542 0.2226767409592867 0.5038377502933145 -1.343754529953003 4.510029852390289 -3.141976520419121 1.741769202053547 -1.2500083073973656 0.396665520966053 -0.41162386536598206 -2.3561979085206985 -12.114064246416092 1.103430613875389 -3.182077556848526 4.93817076086998 -0.07304325699806213 -1.4539272710680962 -3.375208340585232 3.2888858020305634 -2.0020953565835953 -4.630613923072815 4.392500147223473 -3.4978795051574707 -39.3532258272171 -39.70688581466675 -29.184869527816772 -28.901250064373016 68.87703001499176 15.863808542490005 2.501479424536228 -8.268825262784958 -6.786895394325256 5.253365524113178 2.8032423555850983 -1.2549479305744171 39.04547721147537 -36.549652218818665 47.86271095275879 28.25798660516739 72.49590933322906 -26.79092824459076 9.9619160592556 -24.9095356464386 19.377232789993286
0.0252095777541399 60.289588928222656 0.42717520147562027 -41.18432700634003 -18.534463942050934 22.002997398376465 -8.036817535758018 19.39282312989235 -1.4566433429718018 4.524615705013275 -17.168304920196533 4.476042576134205 -5.017491728067398 24.492618441581726 -10.932816714048386 13.374655544757843 -20.788393914699554 -9.479904994368553 -3.410000279545784 1.7091823741793633 -2.5767039880156517 -9.713430181145668 2.9693934693932533 -1.4491063356399536 0.49725405871868134 3.250456787645817 -1.2145119532942772 59.48695421218872 36.44085645675659 18.893997967243195 -25.1152503490448 -20.177009850740433 79.32924449443817 -5.256994217634201 -26.64658784866333 13.41644436120987 3.227800838649273 0.5547059699892998 -2.0586390048265457 -0.055933110415935516 4.8075176775455475 6.260165870189667 -1.204194501042366 1.8295584060251713 0.36908185109496117 10.063211023807526 8.839652985334396 1.6745205223560333 0.9727637842297554 -1.096397191286087 -0.5206308513879776 0.5368551984429359 0.5974312126636505 2.5847358629107475 4.484786242246628 -2.9868576675653458 -1.7385636270046234 10.246898084878922 2.0417793095111847 2.0812533795833588 1.7534475401043892 4.12499874830246 1.2442747503519058 0.8266253024339676 -4.2623211443424225 0.009914115071296692 0.21823001559823751 -3.2971054315567017 -1.7018621228635311 -72.65963673591614 43.11502128839493 -21.458964943885803 22.454010844230652 -41.66791319847107 -60.13090968132019 3.6967555806040764 -24.838105738162994 -2.8625231981277466 2.0005088299512863 -2.2851166874170303 2.1704856120049953 -0.23155577480793 2.079920992255211 0.6436144933104515 -0.7245850190520287 -1.61804661154747 -0.7500676810741425 -10.704871863126755 6.850514709949493 -4.263189174234867 1.3536902703344822 3.0986246466636658 -2.4685952067375183 1.697458103299141 -0.2050532028079033 2.122582532465458 -1.5156958624720573 4.496939331293106 1.7466162890195847 -10.769097357988358 -2.439137175679207 1.5791143476963043 -2.40182027220726 -0.5767299234867096 3.7911874428391457 -0.6942438706755638 -4.17972519993782 1.5957339853048325 3.068758249282837 -2.8548822551965714 2.047000229358673 -32.90223956108093 -35.41007548570633 -24.08956289291382 -20.539152324199677 57.95567035675049 8.862631469964981 -6.79890900850296 -6.844848543405533 0.29415249824523926 -6.064843386411667 -4.954306930303574 -1.0215850174427032 32.77300268411636 -25.806683599948883 44.562424421310425 32.07989305257797 69.57417368888855 -27.483109831809998 5.7746390998363495 -10.240144282579422 25.80164909362793
0.02481240313500166 61.81995391845703 0.642806388437748 -36.304680705070496 -17.0671346783638 20.48121929168701 -6.93914495408535 18.76155987381935 -3.679473102092743 3.3057019114494324 -14.520752727985382 2.720845229923725 -4.143990129232407 20.18315076828003 -12.822390049695969 15.970534980297089 -21.795933544635773 -8.08897577226162 -1.9454068690538406 1.4293689653277397 -2.218366228044033 -5.400073304772377 1.6771561279892921 -1.0675781965255737 0.4823409765958786 1.6269652917981148 -0.04966076463460922 55.47552287578583 34.630915224552155 19.27953600883484 -23.488833904266357 -20.997374206781387 71.08846843242645 -3.905482739210129 -20.89311808347702 8.31217847764492 2.1626849099993706 -0.25781024247407913 -1.1266572028398514 0.3615621104836464 2.683323472738266 3.037438429892063 -0.6703490763902664 0.8158496953547001 0.33013617619872093 10.137449204921722 8.031288832426071 1.5841193497180939 0.7138984277844429 -0.09159877896308899 -0.053331032395362854 2.12127897888422 0.4598607122898102 1.460546962916851 2.099240440875292 -2.5025204569101334 0.4575003683567047 9.765929728746414 1.3204582035541534 0.49568161368370056 0.11498261243104935 2.149098515510559 1.6016415506601334 1.4422593265771866 -3.1358791887760162 -0.06534330546855927 -0.0028698379173874855 -2.1240466833114624 -0.9261243604123592 -72.94890224933624 36.069555580616 -21.792266964912415 23.05152118206024 -36.967889070510864 -57.11313486099243 4.877474717795849 -18.235558569431305 2.876695990562439 1.6729789227247238 -1.0454854276031256 1.0867766104638577 -0.2776361256837845 1.0369118303060532 0.814739428460598 -0.8431654796004295 -0.7862506806850433 -0.9349630773067474 -9.375504702329636 5.748588144779205 -2.3306790366768837 0.9051551856100559 1.6052645444869995 -1.5458723902702332 -0.26852600276470184 0.7842527702450752 0.9569535031914711 -1.2182710692286491 2.4213360249996185 1.5080177038908005 -9.906209260225296 -0.8245278149843216 0.5672401841729879 -1.3708408176898956 -0.9068991243839264 1.7350797727704048 -1.521211825311184 -2.9299499094486237 0.9643097966909409 1.7352495901286602 -1.604897752404213 1.4582204818725586 -27.253040671348572 -33.3731147646904 -21.549489498138428 -19.807424247264862 60.98789691925049 13.039914518594742 -3.819526992738247 -7.456290274858475 -1.1525559425354004 -3.4928620979189873 -2.3917029798030853 -0.34060433506965637 35.0882425904274 -29.617163836956024 39.795119762420654 28.12646985054016 65.2780956029892 -25.21013617515564 7.357555478811264 -13.37552860379219 20.890384912490845
